<svg width="22" height="20" viewBox="0 0 22 20" fill="none" xmlns="http://www.w3.org/2000/svg">
<path d="M10.1817 0.860129C10.4816 -0.0601477 11.7835 -0.0601469 12.0833 0.86013L13.8344 6.23453C13.9685 6.64615 14.3523 6.92473 14.7852 6.92473H20.446C21.4154 6.92473 21.8177 8.16576 21.0327 8.73452L16.4578 12.0492C16.1064 12.3038 15.9593 12.7561 16.0937 13.1687L17.8423 18.5354C18.1423 19.4562 17.089 20.2232 16.3048 19.655L11.7192 16.3326C11.3692 16.079 10.8958 16.079 10.5458 16.3326L5.96024 19.655C5.17599 20.2232 4.1227 19.4562 4.42272 18.5354L6.17129 13.1687C6.30575 12.7561 6.15867 12.3038 5.80721 12.0492L1.23233 8.73453C0.447328 8.16576 0.849659 6.92473 1.81905 6.92473H7.47981C7.91273 6.92473 8.29649 6.64615 8.43061 6.23453L10.1817 0.860129Z" fill="#E5E5E5"/>
</svg>
