<?xml version="1.0" standalone="no"?>
<!DOCTYPE svg PUBLIC "-//W3C//DTD SVG 20010904//EN"
 "http://www.w3.org/TR/2001/REC-SVG-20010904/DTD/svg10.dtd">
<svg version="1.0" xmlns="http://www.w3.org/2000/svg"
 width="512.000000pt" height="512.000000pt" viewBox="0 0 512.000000 512.000000"
 preserveAspectRatio="xMidYMid meet">
<metadata>
Created by potrace 1.14, written by Peter Selinger 2001-2017
</metadata>
<g transform="translate(0.000000,512.000000) scale(0.100000,-0.100000)"
fill="#000000" stroke="none">
<path d="M2379 5116 c-2 -2 -36 -7 -74 -10 -39 -4 -82 -9 -95 -11 -14 -3 -43
-7 -65 -10 -22 -3 -47 -7 -55 -10 -8 -2 -26 -6 -40 -9 -82 -16 -165 -39 -177
-48 -7 -5 -16 -7 -21 -4 -5 3 -20 -1 -35 -9 -15 -8 -27 -11 -27 -8 0 3 -6 1
-12 -4 -7 -5 -33 -16 -58 -23 -25 -7 -53 -20 -62 -28 -9 -8 -22 -11 -27 -7 -6
3 -11 1 -11 -5 0 -6 -4 -9 -9 -5 -5 3 -12 1 -16 -5 -4 -6 -11 -8 -16 -5 -5 4
-9 2 -9 -2 0 -9 -57 -33 -74 -32 -5 0 -12 -4 -15 -9 -8 -12 -74 -47 -83 -44
-5 1 -8 -3 -8 -8 0 -6 -5 -10 -10 -10 -6 0 -29 -12 -53 -27 -78 -49 -182 -118
-187 -123 -3 -3 -23 -18 -45 -34 -48 -36 -76 -59 -127 -107 -21 -20 -38 -34
-38 -32 0 8 -190 -188 -190 -195 0 -4 -16 -23 -35 -42 -19 -19 -35 -40 -35
-48 0 -7 -4 -10 -10 -7 -5 3 -10 2 -10 -3 0 -4 -9 -18 -20 -30 -12 -12 -18
-22 -15 -22 6 0 -5 -15 -37 -50 -9 -10 -19 -27 -23 -39 -3 -12 -10 -21 -14
-21 -5 0 -14 -13 -21 -30 -7 -16 -17 -30 -22 -30 -5 0 -7 -4 -4 -9 4 -5 2 -11
-3 -13 -22 -8 -192 -364 -206 -431 -2 -9 -7 -23 -12 -30 -4 -6 -8 -14 -9 -17
-3 -17 -17 -67 -21 -80 -7 -18 -10 -28 -17 -57 -3 -13 -9 -33 -12 -45 -3 -13
-6 -29 -6 -35 -1 -7 -4 -13 -7 -13 -3 0 -7 -10 -7 -22 -3 -44 -8 -78 -14 -78
-3 0 -6 -17 -7 -38 -3 -40 -11 -97 -13 -97 -5 0 -13 -160 -13 -275 0 -117 7
-245 13 -245 1 0 3 -18 6 -40 3 -38 20 -113 32 -145 3 -8 7 -26 9 -40 2 -14 7
-34 12 -45 12 -27 23 -57 26 -71 7 -30 81 -200 122 -279 25 -50 53 -103 61
-120 19 -37 162 -258 172 -265 3 -3 15 -20 25 -38 11 -17 23 -32 27 -32 4 0 8
-4 8 -10 0 -5 7 -18 15 -27 9 -10 39 -47 68 -83 28 -36 56 -70 62 -76 5 -6 30
-35 55 -64 68 -79 297 -308 369 -370 36 -30 76 -66 91 -80 15 -14 46 -41 71
-61 81 -67 134 -110 154 -124 11 -9 34 -25 50 -38 66 -51 136 -97 145 -97 6 0
10 -3 10 -7 0 -5 29 -26 65 -48 36 -22 65 -43 65 -48 0 -4 4 -5 10 -2 5 3 10
1 10 -4 0 -6 5 -11 12 -11 6 0 19 -6 27 -14 9 -7 36 -24 61 -37 25 -13 47 -27
50 -30 3 -3 22 -12 43 -20 20 -7 37 -16 37 -19 0 -3 19 -14 43 -24 23 -9 56
-23 72 -30 281 -123 418 -111 760 61 50 25 97 52 106 59 8 8 23 14 32 14 9 0
17 5 17 10 0 6 7 10 15 10 8 0 15 5 15 10 0 6 5 10 10 10 6 0 16 5 23 10 7 6
55 38 107 73 99 65 231 157 240 167 3 3 25 21 50 40 25 19 50 39 56 45 6 5 32
28 59 50 26 22 59 50 72 63 12 13 23 21 23 18 0 -15 349 329 426 421 27 32 58
67 69 78 11 12 29 34 40 49 11 15 30 40 43 54 13 15 37 47 55 72 17 25 36 50
42 57 31 36 35 43 28 43 -4 0 0 5 10 11 9 5 17 14 17 20 0 5 5 15 10 22 6 7
24 33 40 60 17 26 43 68 59 93 38 58 160 306 177 359 2 6 20 57 40 115 19 58
37 116 39 130 2 14 9 40 14 58 5 18 10 35 10 37 1 3 2 6 2 8 1 1 3 22 4 47 2
25 4 45 5 45 12 0 22 383 10 390 -3 2 -5 19 -4 37 1 18 0 37 -4 43 -3 5 -7 30
-8 55 -1 25 -3 45 -4 45 -1 0 -3 9 -4 20 -1 11 -6 38 -11 60 -5 22 -7 46 -6
53 1 6 -3 12 -9 12 -6 0 -9 4 -6 9 3 4 -1 35 -10 67 -9 33 -17 66 -19 74 -2 8
-4 16 -5 18 -3 2 -3 2 -15 47 -4 17 -10 35 -14 40 -3 6 -6 16 -7 23 -4 22
-105 263 -124 292 -5 8 -19 35 -32 60 -20 41 -129 219 -149 244 -5 6 -37 47
-71 91 -103 132 -205 240 -327 345 -36 30 -72 62 -81 70 -66 62 -425 284 -475
294 -5 1 -32 12 -60 25 -79 37 -203 80 -209 73 -3 -3 -6 0 -6 6 0 7 -9 12 -21
12 -11 0 -28 4 -38 9 -10 6 -31 12 -47 15 -16 2 -31 5 -34 7 -3 1 -9 3 -15 4
-5 2 -12 4 -15 5 -9 3 -45 11 -67 15 -11 1 -29 6 -40 9 -63 20 -264 39 -444
41 -114 2 -208 2 -210 1z"/>
</g>
</svg>
